# This file uses centimeters as units for non-parametric coordinates.

mtllib Realitylab.mtl
g default
v -6.090086 0.875237 9.223301
v -5.953679 0.875237 9.223301
v -6.090086 1.048041 9.223301
v -5.953679 1.048041 9.223301
v -6.090086 1.048041 8.720859
v -5.953679 1.048041 8.720859
v -6.090086 0.875237 8.720859
v -5.953679 0.875237 8.720859
v -4.654456 1.629775 8.720859
v -4.654456 1.629775 9.223301
v -4.654456 1.802576 8.720859
v -4.654456 1.802576 9.223301
v -7.389309 1.629775 8.720859
v -7.389309 1.629775 9.223301
v -7.389309 1.802576 9.223301
v -7.389309 1.802576 8.720859
v -6.022162 0.835511 9.223301
v -6.022162 2.579646 9.223301
v -6.022162 2.579646 8.720859
v -6.022162 0.835511 8.720859
v -4.784894 1.726824 9.223301
v -4.784894 1.726824 8.720859
v -4.784894 1.554022 8.720859
v -4.784894 1.554022 9.223301
v -7.258874 1.726824 9.223301
v -7.258874 1.554022 9.223301
v -7.258874 1.554022 8.720859
v -7.258874 1.726824 8.720859
v -4.725909 3.236504 9.223301
v -4.725909 3.236504 8.720859
v -4.595472 3.312257 9.223301
v -4.595472 3.312257 8.720859
v -7.317856 3.236503 8.720859
v -7.317856 3.236503 9.223301
v -7.448292 3.312254 8.720859
v -7.448292 3.312254 9.223301
v -4.897113 1.661651 9.223301
v -4.897113 1.661651 8.720859
v -4.897113 1.488849 8.720859
v -4.897113 1.488849 9.223301
v -7.146651 1.661651 9.223301
v -7.146651 1.488849 9.223301
v -7.146651 1.488849 8.720859
v -7.146651 1.661651 8.720859
v -4.836138 1.697064 9.223301
v -4.836138 1.697064 8.720859
v -4.836138 1.524259 8.720859
v -4.836138 1.524259 9.223301
v -7.207627 1.697064 9.223301
v -7.207627 1.524259 9.223301
v -7.207627 1.524259 8.720859
v -7.207627 1.697064 8.720859
v -4.904369 1.674143 9.223301
v -4.904369 1.674143 8.720859
v -5.477638 1.908737 9.223301
v -5.477638 1.908737 8.720859
v -4.792149 1.739317 9.223301
v -4.792149 1.739317 8.720859
v -7.139396 1.674143 8.720859
v -7.139396 1.674143 9.223301
v -6.566126 1.908737 8.720859
v -6.566126 1.908737 9.223301
v -7.251619 1.739317 8.720859
v -7.251619 1.739317 9.223301
v -6.014191 3.691377 9.223301
v -6.014191 3.691377 8.720859
v -5.883754 3.767128 9.223301
v -5.883754 3.767128 8.720859
v -6.029570 3.691377 8.720859
v -6.029570 3.691377 9.223301
v -6.160007 3.767126 8.720859
v -6.160007 3.767126 9.223301
v -6.021281 3.816900 9.223301
v -6.021846 3.691377 9.223301
v -6.021846 3.691377 8.720859
v -6.021281 3.816900 8.720859
v -5.968402 3.675210 9.223301
v -5.968402 3.675210 8.720859
v -5.837965 3.750961 8.720859
v -5.837965 3.750961 9.223301
v -6.075358 3.675209 9.223301
v -6.205794 3.750959 9.223301
v -6.205794 3.750959 8.720859
v -6.075358 3.675209 8.720859
v -6.016692 3.048556 9.223301
v -6.016692 3.048556 8.720859
v -6.021846 3.048127 9.223301
v -6.021846 3.048127 8.720859
v -6.027070 3.048556 9.223301
v -6.027070 3.048556 8.720859
v -5.973405 3.661045 9.223301
v -5.973405 3.661045 8.720859
v -6.070357 3.661044 8.720859
v -6.070357 3.661044 9.223301
v -4.789382 3.258915 9.223301
v -4.789382 3.258915 8.720859
v -4.658945 3.334669 8.720859
v -4.658945 3.334669 9.223301
v -7.254381 3.258915 9.223301
v -7.384818 3.334666 9.223301
v -7.384818 3.334666 8.720859
v -7.254381 3.258915 8.720859
v -4.729194 3.152431 9.223301
v -4.729194 3.152431 8.720859
v -4.598756 3.228184 8.720859
v -4.598756 3.228184 9.223301
v -7.314571 3.152430 9.223301
v -7.445007 3.228181 9.223301
v -7.445007 3.228181 8.720859
v -7.314571 3.152430 8.720859
v -5.995301 2.603475 9.223301
v -5.995301 2.603475 8.720859
v -4.797364 3.236309 9.223301
v -4.797364 3.236309 8.720859
v -4.753148 3.153367 9.223301
v -4.753148 3.153367 8.720859
v -6.048463 2.603474 8.720859
v -6.048463 2.603474 9.223301
v -7.246399 3.236309 8.720859
v -7.246399 3.236309 9.223301
v -7.290616 3.153366 8.720859
v -7.290616 3.153366 9.223301
vt 0.866877 0.562943
vt 0.866877 0.799127
vt 0.840230 0.799127
vt 0.840230 0.562943
vt 0.971361 0.539898
vt 0.998008 0.539898
vt 0.998008 0.566545
vt 0.971361 0.566545
vt 0.998008 0.786383
vt 0.971361 0.786383
vt 0.998008 0.799348
vt 0.971361 0.799348
vt 0.938578 0.562943
vt 0.965225 0.562943
vt 0.965225 0.589590
vt 0.938578 0.589590
vt 0.965225 0.809428
vt 0.938578 0.809428
vt 0.965225 0.822393
vt 0.938578 0.822393
vt 0.834095 0.799127
vt 0.807447 0.799127
vt 0.807447 0.562943
vt 0.834095 0.562943
vt 0.643534 0.562943
vt 0.670181 0.562943
vt 0.670181 0.782781
vt 0.643534 0.782781
vt 0.610751 0.562943
vt 0.637399 0.562943
vt 0.637399 0.782781
vt 0.610751 0.782781
vt 0.407920 0.657393
vt 0.381273 0.657393
vt 0.381273 0.562943
vt 0.407920 0.562943
vt 0.407920 0.659577
vt 0.381273 0.659577
vt 0.375137 0.657393
vt 0.348490 0.657393
vt 0.348490 0.562943
vt 0.375137 0.562943
vt 0.375137 0.659577
vt 0.348490 0.659577
vt 0.334192 0.562943
vt 0.334192 0.589590
vt 0.330706 0.589590
vt 0.330706 0.562943
vt 0.324571 0.562943
vt 0.324571 0.589590
vt 0.321085 0.589590
vt 0.321085 0.562943
vt 0.968867 0.282098
vt 0.968867 0.268828
vt 0.995515 0.268828
vt 0.995515 0.282098
vt 0.968867 0.255450
vt 0.995515 0.255450
vt 0.995515 0.488502
vt 0.968867 0.488502
vt 0.968867 0.049046
vt 0.995515 0.049046
vt 0.995515 0.500414
vt 0.968867 0.500414
vt 0.968867 0.037134
vt 0.995515 0.037134
vt 0.995515 0.510425
vt 0.968867 0.510425
vt 0.968867 0.027123
vt 0.995515 0.027123
vt 0.995515 0.535906
vt 0.968867 0.535906
vt 0.968867 0.001642
vt 0.995515 0.001642
vt 0.604616 0.769347
vt 0.577969 0.769347
vt 0.577969 0.562943
vt 0.604616 0.562943
vt 0.545186 0.562943
vt 0.571833 0.562943
vt 0.571833 0.769347
vt 0.545186 0.769347
vt 0.446838 0.564360
vt 0.473485 0.564360
vt 0.473485 0.676351
vt 0.446838 0.676351
vt 0.446838 0.562943
vt 0.473485 0.562943
vt 0.440703 0.674934
vt 0.414055 0.674934
vt 0.414055 0.562943
vt 0.440703 0.562943
vt 0.440703 0.676351
vt 0.414055 0.676351
vt 0.506268 0.698273
vt 0.479621 0.698273
vt 0.479621 0.564360
vt 0.506268 0.564360
vt 0.479621 0.562943
vt 0.506268 0.562943
vt 0.512403 0.562943
vt 0.539051 0.562943
vt 0.539051 0.696857
vt 0.512403 0.696857
vt 0.539051 0.698274
vt 0.512403 0.698274
vt 0.801312 0.796965
vt 0.774665 0.796965
vt 0.774665 0.562943
vt 0.801312 0.562943
vt 0.935735 0.001642
vt 0.962382 0.001642
vt 0.962382 0.014041
vt 0.935735 0.014041
vt 0.962382 0.244368
vt 0.935735 0.244368
vt 0.962382 0.253313
vt 0.935735 0.253313
vt 0.962382 0.280179
vt 0.935735 0.280179
vt 0.962382 0.307280
vt 0.935735 0.307280
vt 0.962382 0.316225
vt 0.935735 0.316225
vt 0.962382 0.546552
vt 0.935735 0.546552
vt 0.962382 0.558952
vt 0.935735 0.558952
vt 0.741882 0.562943
vt 0.768529 0.562943
vt 0.768529 0.796965
vt 0.741882 0.796965
vt 0.342355 0.562943
vt 0.342355 0.589590
vt 0.341348 0.589590
vt 0.341348 0.562943
vt 0.340327 0.589590
vt 0.340327 0.562943
vt 0.676317 0.562943
vt 0.702964 0.562943
vt 0.702964 0.793269
vt 0.676317 0.793269
vt 0.735747 0.793270
vt 0.709099 0.793270
vt 0.709099 0.562943
vt 0.735747 0.562943
vt 0.905795 0.567623
vt 0.932443 0.567623
vt 0.932443 0.810282
vt 0.905795 0.810282
vt 0.905795 0.562943
vt 0.932443 0.562943
vt 0.899660 0.805603
vt 0.873013 0.805603
vt 0.873013 0.562943
vt 0.899660 0.562943
vt 0.899660 0.810282
vt 0.873013 0.810282
vt 0.008118 0.293620
vt 0.001992 0.280351
vt 0.270950 0.280351
vt 0.034766 0.293620
vt 0.008118 0.266973
vt 0.034766 0.266973
vt 0.129388 0.500025
vt 0.102741 0.500025
vt 0.102741 0.060568
vt 0.129388 0.060568
vt 0.134849 0.511937
vt 0.108202 0.511937
vt 0.108202 0.048657
vt 0.134849 0.048657
vt 0.131315 0.498607
vt 0.167491 0.386617
vt 0.139439 0.521948
vt 0.112791 0.521948
vt 0.112791 0.038646
vt 0.139439 0.038646
vt 0.167491 0.173976
vt 0.131315 0.061986
vt 0.141365 0.520531
vt 0.151120 0.547429
vt 0.124473 0.547429
vt 0.124473 0.013164
vt 0.151120 0.013164
vt 0.141365 0.040063
vt 0.359277 0.532829
vt 0.370958 0.558310
vt 0.370959 0.002283
vt 0.359277 0.027765
vt 0.372241 0.533470
vt 0.383923 0.558952
vt 0.383923 0.001642
vt 0.372242 0.027123
vt 0.359421 0.528149
vt 0.274624 0.285489
vt 0.375697 0.521070
vt 0.387379 0.546552
vt 0.387379 0.014041
vt 0.375698 0.039523
vt 0.274624 0.275104
vt 0.359421 0.032444
vt 0.372212 0.519511
vt 0.439893 0.290743
vt 0.451574 0.316225
vt 0.451574 0.244368
vt 0.439893 0.269849
vt 0.372212 0.041082
vt 0.442386 0.281799
vt 0.454067 0.307280
vt 0.454067 0.253313
vt 0.442386 0.278794
vt 0.437709 0.289766
vt 0.343259 0.281310
vt 0.442386 0.280290
vt 0.461743 0.280179
vt 0.343259 0.279283
vt 0.437709 0.270826
vt 0.343193 0.280290
vt 0.894964 0.293620
vt 0.658780 0.280351
vt 0.927737 0.280351
vt 0.921611 0.293620
vt 0.894964 0.266973
vt 0.921611 0.266973
vt 0.826988 0.500025
vt 0.800341 0.500025
vt 0.800341 0.060568
vt 0.826988 0.060568
vt 0.821527 0.511937
vt 0.794880 0.511937
vt 0.794880 0.048657
vt 0.821527 0.048657
vt 0.816938 0.521948
vt 0.790291 0.521948
vt 0.762238 0.386617
vt 0.798414 0.498607
vt 0.798414 0.061986
vt 0.762238 0.173976
vt 0.790291 0.038646
vt 0.816938 0.038646
vt 0.805256 0.547429
vt 0.778609 0.547429
vt 0.788364 0.520531
vt 0.788364 0.040063
vt 0.778609 0.013164
vt 0.805256 0.013164
vt 0.558771 0.558310
vt 0.570452 0.532829
vt 0.570452 0.027765
vt 0.558771 0.002283
vt 0.545806 0.558952
vt 0.557488 0.533470
vt 0.557488 0.027123
vt 0.545806 0.001642
vt 0.542350 0.546552
vt 0.554032 0.521070
vt 0.655105 0.285489
vt 0.570308 0.528149
vt 0.570308 0.032444
vt 0.655105 0.275104
vt 0.554032 0.039523
vt 0.542350 0.014041
vt 0.478155 0.316225
vt 0.489836 0.290743
vt 0.557518 0.519511
vt 0.557518 0.041082
vt 0.489836 0.269849
vt 0.478155 0.244368
vt 0.475662 0.307280
vt 0.487343 0.281799
vt 0.487343 0.278794
vt 0.475662 0.253313
vt 0.467987 0.280179
vt 0.487343 0.280290
vt 0.586471 0.281310
vt 0.492021 0.289766
vt 0.492020 0.270826
vt 0.586470 0.279283
vt 0.586537 0.280290
vn 0.000000 0.000000 1.000000
vn 0.000000 0.000000 1.000000
vn 0.000000 0.000000 1.000000
vn 0.000000 0.000000 1.000000
vn -0.632395 0.774646 0.000000
vn 0.000000 1.000000 0.000000
vn 0.000000 1.000000 0.000000
vn -0.632395 0.774646 0.000000
vn 0.000000 0.000000 -1.000000
vn 0.000000 0.000000 -1.000000
vn 0.000000 0.000000 -1.000000
vn 0.000000 0.000000 -1.000000
vn -0.502370 -0.864653 0.000000
vn 0.000000 -1.000000 0.000000
vn 0.000000 -1.000000 0.000000
vn -0.502370 -0.864653 0.000000
vn 1.000000 0.000000 0.000000
vn 1.000000 0.000000 0.000000
vn 1.000000 0.000000 0.000000
vn 1.000000 0.000000 0.000000
vn -1.000000 0.000000 0.000000
vn -1.000000 0.000000 0.000000
vn -1.000000 0.000000 0.000000
vn -1.000000 0.000000 0.000000
vn 0.502184 -0.864761 0.000000
vn 0.502184 -0.864761 0.000000
vn 0.502209 -0.864746 0.000000
vn 0.502209 -0.864746 0.000000
vn 0.000000 0.000000 -1.000000
vn 0.000000 0.000000 -1.000000
vn 0.000000 0.000000 -1.000000
vn 0.000000 0.000000 -1.000000
vn 0.632207 0.774800 0.000000
vn 0.632207 0.774800 0.000000
vn -0.502209 0.864746 0.000000
vn -0.502209 0.864746 0.000000
vn 0.000000 0.000000 1.000000
vn 0.000000 0.000000 1.000000
vn 0.000000 0.000000 1.000000
vn 0.000000 0.000000 1.000000
vn -0.502209 -0.864746 0.000000
vn -0.502209 -0.864746 0.000000
vn 0.000000 0.000000 1.000000
vn 0.000000 0.000000 1.000000
vn 0.502209 0.864746 0.000000
vn 0.502209 0.864746 0.000000
vn 0.000000 0.000000 -1.000000
vn 0.000000 0.000000 -1.000000
vn 0.000000 0.000000 -1.000000
vn 0.000000 0.000000 -1.000000
vn 0.000000 0.000000 -1.000000
vn 0.000000 0.000000 -1.000000
vn 0.502215 -0.864743 0.000000
vn 0.502215 -0.864743 0.000000
vn 0.502207 -0.864747 0.000000
vn 0.502207 -0.864747 0.000000
vn 0.000000 0.000000 1.000000
vn 0.000000 0.000000 1.000000
vn 0.000000 0.000000 1.000000
vn 0.000000 0.000000 1.000000
vn 0.000000 0.000000 1.000000
vn 0.000000 0.000000 1.000000
vn 0.000000 0.000000 1.000000
vn 0.000000 0.000000 1.000000
vn -0.502215 -0.864743 0.000000
vn -0.502215 -0.864743 0.000000
vn -0.502213 -0.864744 0.000000
vn -0.502213 -0.864744 0.000000
vn 0.000000 0.000000 -1.000000
vn 0.000000 0.000000 -1.000000
vn 0.000000 0.000000 -1.000000
vn 0.000000 0.000000 -1.000000
vn -0.999238 0.039041 0.000000
vn -0.999238 0.039041 0.000000
vn -0.999238 0.039041 0.000000
vn -0.999238 0.039041 0.000000
vn 0.000000 0.000000 1.000000
vn 0.000000 0.000000 1.000000
vn 0.999238 -0.039042 0.000000
vn 0.999238 -0.039042 0.000000
vn 0.999238 -0.039041 0.000000
vn 0.999238 -0.039041 0.000000
vn 0.000000 0.000000 -1.000000
vn 0.000000 0.000000 -1.000000
vn 0.999238 0.039039 0.000000
vn 0.999238 0.039039 0.000000
vn 0.999238 0.039039 0.000000
vn 0.999238 0.039039 0.000000
vn 0.000000 0.000000 -1.000000
vn 0.000000 0.000000 -1.000000
vn -0.999238 -0.039040 0.000000
vn -0.999238 -0.039040 0.000000
vn -0.999238 -0.039040 0.000000
vn -0.999238 -0.039040 0.000000
vn 0.000000 0.000000 1.000000
vn 0.000000 0.000000 1.000000
vn -0.378737 -0.925504 0.000000
vn -0.378737 -0.925504 0.000000
vn -0.502215 0.864743 0.000000
vn -0.502215 0.864743 0.000000
vn 0.000000 0.000000 -1.000000
vn 0.000000 0.000000 -1.000000
vn 0.502215 -0.864743 0.000000
vn 0.502215 -0.864743 0.000000
vn 0.000000 0.000000 1.000000
vn 0.000000 0.000000 1.000000
vn 0.000000 0.000000 1.000000
vn 0.000000 0.000000 1.000000
vn -0.502204 -0.864749 0.000000
vn -0.502204 -0.864749 0.000000
vn 0.000000 0.000000 -1.000000
vn 0.000000 0.000000 -1.000000
vn 0.378736 -0.925505 0.000000
vn 0.378736 -0.925505 0.000000
vn 0.502206 0.864748 0.000000
vn 0.502206 0.864748 0.000000
vn 0.239933 0.970789 0.000000
vn 0.239933 0.970789 0.000000
vn -0.239932 0.970790 0.000000
vn -0.239932 0.970790 0.000000
vn -0.864729 -0.502239 0.000000
vn -0.864729 -0.502239 0.000000
vn -0.864729 -0.502239 0.000000
vn -0.864729 -0.502239 0.000000
vn 0.000000 0.000000 1.000000
vn 0.000000 0.000000 1.000000
vn 0.000000 0.000000 -1.000000
vn 0.000000 0.000000 -1.000000
vn 0.000000 0.000000 1.000000
vn 0.864753 0.502197 0.000000
vn 0.864753 0.502197 0.000000
vn 0.864753 0.502197 0.000000
vn 0.864753 0.502197 0.000000
vn 0.000000 0.000000 -1.000000
vn 0.864744 -0.502212 0.000000
vn 0.864744 -0.502212 0.000000
vn 0.864744 -0.502212 0.000000
vn 0.864744 -0.502212 0.000000
vn 0.000000 0.000000 -1.000000
vn 0.000000 0.000000 -1.000000
vn 0.000000 0.000000 1.000000
vn 0.000000 0.000000 1.000000
vn 0.000000 0.000000 -1.000000
vn -0.864753 0.502197 0.000000
vn -0.864753 0.502197 0.000000
vn -0.864753 0.502197 0.000000
vn -0.864753 0.502197 0.000000
vn 0.000000 0.000000 1.000000
vn -0.467099 0.884205 0.000000
vn -0.467099 0.884205 0.000000
vn -0.467099 0.884205 0.000000
vn -0.467099 0.884205 0.000000
vn 0.000000 0.000000 1.000000
vn 0.000000 0.000000 1.000000
vn 0.000000 0.000000 1.000000
vn 0.000000 0.000000 1.000000
vn 0.332945 0.942946 0.000000
vn 0.332945 0.942946 0.000000
vn 0.332940 0.942948 0.000000
vn 0.332940 0.942948 0.000000
vn 0.000000 0.000000 -1.000000
vn 0.000000 0.000000 -1.000000
vn 0.000000 0.000000 -1.000000
vn 0.000000 0.000000 -1.000000
vn 0.467100 0.884205 0.000000
vn 0.467100 0.884205 0.000000
vn 0.467100 0.884205 0.000000
vn 0.467100 0.884205 0.000000
vn 0.000000 0.000000 -1.000000
vn 0.000000 0.000000 -1.000000
vn 0.000000 0.000000 -1.000000
vn 0.000000 0.000000 -1.000000
vn -0.332936 0.942949 0.000000
vn -0.332936 0.942949 0.000000
vn -0.332939 0.942948 0.000000
vn -0.332939 0.942948 0.000000
vn 0.000000 0.000000 1.000000
vn 0.000000 0.000000 1.000000
vn 0.000000 0.000000 1.000000
vn 0.000000 0.000000 1.000000
vn 0.000000 0.000000 1.000000
vn 0.000000 0.000000 1.000000
vn 0.000000 0.000000 1.000000
vn 0.000000 0.000000 1.000000
vn 0.340306 0.940315 0.000000
vn 0.340306 0.940315 0.000000
vn -0.000006 1.000000 0.000000
vn -0.000006 1.000000 0.000000
vn 0.082966 -0.996552 0.000000
vn 0.082966 -0.996552 0.000000
vn 0.000064 -1.000000 0.000000
vn 0.000064 -1.000000 0.000000
vn 0.000000 0.000000 -1.000000
vn 0.000000 0.000000 -1.000000
vn 0.000000 0.000000 -1.000000
vn 0.000000 0.000000 -1.000000
vn 0.000000 0.000000 1.000000
vn 0.000000 0.000000 1.000000
vn -0.081758 -0.996652 0.000000
vn -0.081758 -0.996652 0.000000
vn 0.000000 0.000000 -1.000000
vn 0.000000 0.000000 -1.000000
vn -0.337710 0.941250 0.000000
vn -0.337710 0.941250 0.000000
vn 0.997512 -0.070498 0.000000
vn 0.997512 -0.070498 0.000000
vn 0.997512 -0.070498 0.000000
vn 0.997512 -0.070498 0.000000
vn 0.000000 0.000000 -1.000000
vn 0.000000 0.000000 -1.000000
vn 0.000000 0.000000 -1.000000
vn 0.332939 0.942948 0.000000
vn 0.332939 0.942948 0.000000
vn 0.332921 0.942954 0.000000
vn 0.332921 0.942954 0.000000
vn 0.000000 0.000000 1.000000
vn 0.000000 0.000000 1.000000
vn 0.000000 0.000000 1.000000
vn 0.000000 0.000000 1.000000
vn 0.000000 0.000000 1.000000
vn 0.000000 0.000000 1.000000
vn -0.332939 0.942948 0.000000
vn -0.332939 0.942948 0.000000
vn -0.332947 0.942946 0.000000
vn -0.332947 0.942946 0.000000
vn 0.000000 0.000000 -1.000000
vn 0.000000 0.000000 -1.000000
vn 0.000000 0.000000 -1.000000
vn -0.997512 -0.070498 0.000000
vn -0.997512 -0.070498 0.000000
vn -0.997512 -0.070498 0.000000
vn -0.997512 -0.070498 0.000000
vn 0.000000 0.000000 1.000000
vn 0.000000 0.000000 1.000000
vn 0.000000 0.000000 -1.000000
vn 0.000000 0.000000 -1.000000
vn 0.000000 0.000000 1.000000
vn 0.000000 0.000000 -1.000000
vn 0.942924 -0.333009 0.000000
vn 0.942924 -0.333009 0.000000
vn 0.942924 -0.333009 0.000000
vn 0.942924 -0.333009 0.000000
vn 0.000000 0.000000 1.000000
vn 0.000000 0.000000 -1.000000
vn -0.942956 -0.332916 0.000000
vn -0.942956 -0.332916 0.000000
vn -0.942956 -0.332916 0.000000
vn -0.942956 -0.332916 0.000000
vn 0.000000 0.000000 -1.000000
vn 0.000000 0.000000 1.000000
vn -0.332941 -0.942948 0.000000
vn -0.332941 -0.942948 0.000000
vn -0.332941 -0.942948 0.000000
vn -0.332941 -0.942948 0.000000
vn 0.332940 -0.942948 0.000000
vn 0.332940 -0.942948 0.000000
vn 0.332940 -0.942948 0.000000
vn 0.332940 -0.942948 0.000000
vn 0.404800 -0.914405 0.000000
vn 0.404800 -0.914405 0.000000
vn 0.404800 -0.914405 0.000000
vn 0.404800 -0.914405 0.000000
vn 0.999238 -0.039036 0.000000
vn 0.999238 -0.039036 0.000000
vn -0.999237 -0.039043 0.000000
vn -0.999237 -0.039043 0.000000
vn -0.404800 -0.914405 0.000000
vn -0.404800 -0.914405 0.000000
vn -0.404800 -0.914405 0.000000
vn -0.404800 -0.914405 0.000000
vn 0.000000 0.000000 1.000000
vn 0.000000 0.000000 1.000000
vn -0.942943 0.332956 0.000000
vn -0.942943 0.332956 0.000000
vn -0.942943 0.332956 0.000000
vn -0.942943 0.332956 0.000000
vn 0.000000 0.000000 -1.000000
vn 0.000000 0.000000 -1.000000
vn -0.039046 -0.999237 0.000000
vn -0.039046 -0.999237 0.000000
vn -0.039046 -0.999237 0.000000
vn -0.039046 -0.999237 0.000000
vn 0.000000 0.000000 1.000000
vn 0.000000 0.000000 -1.000000
vn 0.000000 0.000000 -1.000000
vn 0.000000 0.000000 -1.000000
vn 0.942943 0.332956 0.000000
vn 0.942943 0.332956 0.000000
vn 0.942943 0.332956 0.000000
vn 0.942943 0.332956 0.000000
vn 0.000000 0.000000 1.000000
vn 0.000000 0.000000 1.000000
vn 0.039046 -0.999237 0.000000
vn 0.039046 -0.999237 0.000000
vn 0.039046 -0.999237 0.000000
vn 0.039046 -0.999237 0.000000
vn 0.000000 0.000000 -1.000000
vn 0.000000 0.000000 1.000000
s 1
g pCube65
usemtl initialShadingGroup
f 1/159/1 17/160/2 18/161/3 3/162/4
s 2
f 3/1/5 18/2/6 19/3/7 5/4/8
s 3
f 5/220/9 19/221/10 20/222/11 7/223/12
s 4
f 7/53/13 20/54/14 17/55/15 1/56/16
s off
f 10/5/17 9/6/18 11/7/19 12/8/20
f 13/13/21 14/14/22 15/15/23 16/16/24
s 4
f 2/58/25 8/57/26 39/61/27 40/62/28
s 3
f 8/225/29 6/224/30 38/228/31 39/229/32
s 2
f 6/75/33 4/76/34 37/77/35 38/78/36
s 1
f 4/164/37 2/163/38 40/167/39 37/168/40
s 4
f 7/53/13 1/56/16 42/59/41 43/60/42
s 1
f 1/159/1 3/162/4 41/165/43 42/166/44
s 2
f 3/79/5 5/80/8 44/81/45 41/82/46
s 3
f 5/220/9 7/223/12 43/226/47 44/227/48
s 1
f 17/160/2 2/163/38 4/164/37 18/161/3
s 2
f 19/21/7 18/22/6 4/23/34 6/24/33
s 3
f 20/222/11 19/221/10 6/224/30 8/225/29
s 4
f 17/55/15 20/54/14 8/57/26 2/58/25
s 3
f 23/241/49 22/240/50 11/246/51 9/247/52
s 4
f 24/70/53 23/69/54 9/73/55 10/74/56
s 1
f 21/178/57 24/177/58 10/184/59 12/185/60
f 26/176/61 25/175/62 15/182/63 14/183/64
s 4
f 27/68/65 26/67/66 14/71/67 13/72/68
s 3
f 28/235/69 27/234/70 13/242/71 16/243/72
s off
f 22/25/73 21/26/74 103/27/75 104/28/76
s 1
f 21/178/57 12/185/60 106/189/77 103/190/78
s 11
f 12/8/79 11/7/80 105/9/81 106/10/82
s 3
f 11/246/51 22/240/50 104/250/83 105/251/84
s off
f 25/29/85 28/30/86 110/31/87 107/32/88
s 3
f 28/235/69 16/243/72 109/248/89 110/249/90
s 12
f 16/16/91 15/15/92 108/17/93 109/18/94
s 1
f 15/182/63 25/175/62 107/187/95 108/188/96
s 13
f 54/83/97 53/84/98 55/85/99 56/86/100
s 3
f 39/229/32 38/228/31 46/232/101 47/233/102
s 4
f 40/62/28 39/61/27 47/65/103 48/66/104
s 1
f 37/168/40 40/167/39 48/171/105 45/172/106
f 42/166/44 41/165/43 49/169/107 50/170/108
s 4
f 43/60/42 42/59/41 50/63/109 51/64/110
s 3
f 44/227/48 43/226/47 51/230/111 52/231/112
s 14
f 60/89/113 59/90/114 61/91/115 62/92/116
s 13
f 56/95/100 55/96/99 57/97/117 58/98/118
s 3
f 47/233/102 46/232/101 22/240/50 23/241/49
s 4
f 48/66/104 47/65/103 23/69/54 24/70/53
s 1
f 45/172/106 48/171/105 24/177/58 21/178/57
f 50/170/108 49/169/107 25/175/62 26/176/61
s 4
f 51/64/110 50/63/109 26/67/66 27/68/65
s 3
f 52/231/112 51/230/111 27/234/70 28/235/69
s 14
f 62/101/116 61/102/115 63/103/119 64/104/120
s off
f 38/87/121 37/88/122 53/84/123 54/83/124
s 1
f 37/168/40 45/172/106 55/179/125 53/180/126
s 3
f 46/232/101 38/228/31 54/238/127 56/239/128
s 1
f 45/172/106 21/178/57 57/186/129 55/179/125
s off
f 21/99/130 22/100/131 58/98/132 57/97/133
s 3
f 22/240/50 46/232/101 56/239/128 58/245/134
s off
f 41/93/135 44/94/136 59/90/137 60/89/138
s 3
f 44/227/48 52/231/112 61/236/139 59/237/140
s 1
f 49/169/107 41/165/43 60/173/141 62/174/142
s 3
f 52/231/112 28/235/69 63/244/143 61/236/139
s off
f 28/105/144 25/106/145 64/104/146 63/103/147
s 1
f 25/175/62 49/169/107 62/174/142 64/181/148
s off
f 112/107/149 111/108/150 113/109/151 114/110/152
s 1
f 29/194/153 31/193/154 98/199/155 95/200/156
s 15
f 31/111/157 32/112/158 97/113/159 98/114/160
s 3
f 32/255/161 30/254/162 96/262/163 97/263/164
s off
f 118/129/165 117/130/166 119/131/167 120/132/168
s 3
f 33/253/169 35/252/170 101/256/171 102/257/172
s 16
f 35/127/173 36/128/174 100/126/175 101/125/176
s 1
f 36/192/177 34/191/178 99/197/179 100/198/180
f 65/212/181 67/211/182 73/216/183 74/215/184
s 18
f 67/118/185 68/117/186 76/119/187 73/120/188
s 19
f 86/133/189 85/134/190 87/135/191 88/136/192
s 3
f 68/273/193 66/272/194 75/275/195 76/274/196
s 1
f 74/215/184 73/216/183 72/210/197 70/209/198
s 19
f 88/136/192 87/135/191 89/137/199 90/138/200
s 3
f 76/274/196 75/275/195 69/271/201 71/270/202
s 18
f 73/120/188 76/119/187 71/121/203 72/122/204
s off
f 92/33/205 91/34/206 85/35/207 86/36/208
s 3
f 79/269/209 78/268/210 66/272/194 68/273/211
s 15
f 80/116/212 79/115/213 68/117/214 67/118/215
s 1
f 77/207/216 80/206/217 67/211/218 65/212/181
f 82/205/219 81/204/220 70/209/198 72/210/221
s 16
f 83/123/222 82/124/223 72/122/224 71/121/225
s 3
f 84/265/226 83/264/227 71/270/228 69/271/201
s off
f 94/39/229 93/40/230 90/41/231 89/42/232
s 1
f 65/212/181 74/215/184 87/219/233 85/217/234
s 3
f 75/275/195 66/272/194 86/279/235 88/280/236
s 1
f 74/215/184 70/209/198 89/214/237 87/219/233
s 3
f 69/271/201 75/275/195 88/280/236 90/276/238
s off
f 78/37/239 77/38/240 91/34/241 92/33/242
s 1
f 77/207/216 65/212/181 85/217/234 91/218/243
s 3
f 66/272/194 78/268/210 92/278/244 86/279/235
s off
f 81/43/245 84/44/246 93/40/247 94/39/248
s 3
f 84/265/226 69/271/201 90/276/238 93/277/249
s 1
f 70/209/198 81/204/220 94/213/250 89/214/237
s off
f 96/139/251 95/140/252 77/141/253 78/142/254
s 3
f 97/263/164 96/262/163 78/268/210 79/269/209
s 15
f 98/114/160 97/113/159 79/115/213 80/116/212
s 1
f 95/200/156 98/199/155 80/206/217 77/207/216
f 100/198/180 99/197/179 81/204/220 82/205/219
s 16
f 101/125/176 100/126/175 82/124/223 83/123/222
s 3
f 102/257/172 101/256/171 83/264/227 84/265/226
s off
f 99/143/255 102/144/256 84/145/257 81/146/258
f 116/147/259 115/148/260 111/149/261 112/150/262
s 3
f 105/251/84 104/250/83 30/254/162 32/255/161
s 11
f 106/10/82 105/9/81 32/11/263 31/12/264
s 1
f 103/190/78 106/189/77 31/193/154 29/194/153
f 108/188/96 107/187/95 34/191/178 36/192/177
s 12
f 109/18/94 108/17/93 36/19/265 35/20/266
s 3
f 110/249/90 109/248/89 35/252/170 33/253/169
s off
f 122/153/267 121/154/268 117/155/269 118/156/270
s 1
f 29/194/153 95/200/156 113/208/271 111/201/272
s off
f 95/45/273 96/46/274 114/47/275 113/48/276
s 3
f 96/262/163 30/254/162 112/261/277 114/267/278
s off
f 104/151/279 103/152/280 115/148/281 116/147/282
s 1
f 103/190/78 29/194/153 111/201/272 115/202/283
s 3
f 30/254/162 104/250/83 116/260/284 112/261/277
f 33/253/169 102/257/172 119/266/285 117/258/286
s off
f 102/49/287 99/50/288 120/51/289 119/52/290
s 1
f 99/197/179 34/191/178 118/196/291 120/203/292
s off
f 107/157/293 110/158/294 121/154/295 122/153/296
s 3
f 110/249/90 33/253/169 117/258/286 121/259/297
s 1
f 34/191/178 107/187/95 122/195/298 118/196/291
