# This file uses centimeters as units for non-parametric coordinates.

mtllib SlidingDoors.mtl
g default
v 4.849905 0.181634 0.866381
v 4.849905 4.195989 0.866380
v 4.849905 4.195989 -1.688137
v 4.849905 0.181634 -1.688137
v 4.669769 0.181634 0.866380
v 4.669769 4.195989 0.866380
v 4.669769 4.195989 -1.688137
v 4.669769 0.181634 -1.688137
v 4.667915 0.280904 -1.581498
v 4.667915 4.053177 -1.581498
v 4.667915 0.280904 0.759741
v 4.667915 4.053177 0.759741
v 4.633745 0.181634 0.830357
v 4.629819 0.193312 0.814104
v 4.633745 0.181634 -1.652114
v 4.629819 0.193312 -1.635861
v 4.631637 4.159117 0.828249
v 4.628631 4.143503 0.815801
v 4.631637 4.159117 -1.650007
v 4.628631 4.143503 -1.637558
vt 0.477401 0.977033
vt 0.477401 0.753346
vt 0.695568 0.753346
vt 0.695568 0.977033
vt 0.247807 0.495785
vt 0.009766 0.495785
vt 0.009766 0.257744
vt 0.247807 0.257743
vt 0.307256 0.257684
vt 0.497618 0.258111
vt 0.497084 0.496057
vt 0.306722 0.495630
vt 0.266892 0.261146
vt 0.266375 0.491988
vt 0.263581 0.262298
vt 0.263068 0.490821
vt 0.731023 0.739352
vt 0.726816 0.737837
vt 0.726806 0.509566
vt 0.731013 0.508051
vt 0.769092 0.504693
vt 0.959508 0.504685
vt 0.959518 0.742698
vt 0.769102 0.742706
vt 0.925551 0.474732
vt 0.925715 0.247374
vt 0.966152 0.252448
vt 0.965995 0.469717
vt 0.843715 0.478873
vt 0.843884 0.251199
vt 0.885583 0.256433
vt 0.885421 0.473702
vt 0.556289 0.247632
vt 0.556263 0.009787
vt 0.746544 0.009766
vt 0.746571 0.247611
vt 0.518063 0.009791
vt 0.515854 0.245452
vt 0.513648 0.010482
vt 0.512473 0.244526
vt 0.053582 0.505721
vt 0.243864 0.505765
vt 0.243810 0.743610
vt 0.053528 0.743566
vt 0.013146 0.507897
vt 0.015328 0.743558
vt 0.010914 0.742866
vt 0.009766 0.508822
vt 0.870993 0.243084
vt 0.872412 0.009766
vt 0.912841 0.014966
vt 0.912691 0.237777
vt 0.763412 0.243083
vt 0.761879 0.009766
vt 0.803579 0.015052
vt 0.803839 0.237862
vn -0.000000 0.000000 1.000000
vn -0.000000 0.000000 1.000000
vn -0.000000 0.000000 1.000000
vn -0.000000 0.000000 1.000000
vn 0.000000 1.000000 0.000000
vn 0.000000 1.000000 0.000000
vn 0.000000 1.000000 0.000000
vn 0.000000 1.000000 0.000000
vn 0.000000 0.000000 -1.000000
vn 0.000000 0.000000 -1.000000
vn 0.000000 0.000000 -1.000000
vn 0.000000 0.000000 -1.000000
vn -0.999937 -0.011209 0.000000
vn -0.999941 0.010870 0.000000
vn -0.999941 0.010870 0.000000
vn -0.999937 -0.011208 0.000000
vn -0.981170 -0.101246 0.164481
vn -0.981236 -0.118730 0.151917
vn -0.981236 -0.118730 -0.151916
vn -0.981171 -0.101245 -0.164480
vn -0.986588 0.073618 0.145688
vn -0.987061 0.078323 0.139912
vn -0.987062 0.078323 -0.139911
vn -0.986588 0.073617 -0.145687
vn 0.000000 -1.000000 0.000000
vn 0.000000 -1.000000 0.000000
vn 0.000000 -1.000000 0.000000
vn 0.000000 -1.000000 0.000000
vn 0.000000 -1.000000 0.000000
vn 0.000000 -1.000000 0.000000
vn -0.707106 -0.000000 0.707107
vn -0.707106 -0.000000 0.707107
vn -0.707106 -0.000000 0.707107
vn -0.707106 -0.000000 0.707107
vn -0.695138 0.718876 0.000000
vn -0.695138 0.718876 0.000000
vn -0.695138 0.718876 0.000000
vn -0.695138 0.718876 0.000000
vn -0.707103 -0.000000 -0.707110
vn -0.707103 -0.000000 -0.707110
vn -0.707103 -0.000000 -0.707110
vn -0.707103 -0.000000 -0.707110
vn -0.818945 0.000000 0.573872
vn -0.818945 0.000000 0.573872
vn -0.818945 0.000000 0.573872
vn -0.818945 0.000000 0.573872
vn -0.917026 0.398827 0.000000
vn -0.917026 0.398827 0.000000
vn -0.818944 0.000000 -0.573874
vn -0.818944 0.000000 -0.573874
vn -0.818944 0.000000 -0.573874
vn -0.818944 0.000000 -0.573874
vn -0.917025 -0.398829 0.000000
vn -0.917025 -0.398829 0.000000
vn 1.000000 0.000000 0.000000
vn 1.000000 0.000000 0.000000
vn 1.000000 0.000000 0.000000
vn 1.000000 0.000000 0.000000
s off
g pCube15
usemtl initialShadingGroup
f 6/33/1 5/34/2 1/35/3 2/36/4
f 6/9/5 2/10/6 3/11/7 7/12/8
f 7/41/9 3/42/10 4/43/11 8/44/12
s 1
f 10/1/13 9/2/14 11/3/15 12/4/16
s 2
f 13/17/17 14/18/18 16/19/19 15/20/20
f 14/39/18 13/37/17 17/38/21 18/40/22
f 15/46/20 16/47/19 20/48/23 19/45/24
f 18/15/22 17/13/21 19/14/24 20/16/23
s off
f 15/20/25 8/21/26 4/22/27 1/23/28 5/24/29 13/17/30
f 13/37/31 5/34/32 6/33/33 17/38/34
f 17/13/35 6/9/36 7/12/37 19/14/38
f 19/45/39 7/41/40 8/44/41 15/46/42
f 20/49/43 16/50/44 9/51/45 10/52/46
s 1
f 16/25/47 14/26/48 11/27/15 9/28/14
s off
f 14/53/49 18/54/50 12/55/51 11/56/52
s 1
f 18/29/53 20/30/54 10/31/13 12/32/16
s off
f 3/5/55 2/6/56 1/7/57 4/8/58
g default
v 4.849905 0.181634 7.102954
v 4.849905 4.195989 7.102954
v 4.849905 4.195989 4.548437
v 4.849905 0.181634 4.548437
v 4.669769 0.181634 7.102954
v 4.669769 4.195989 7.102954
v 4.669769 4.195989 4.548437
v 4.669769 0.181634 4.548437
v 4.667915 0.280904 4.655077
v 4.667915 4.053177 4.655077
v 4.667915 0.280904 6.996315
v 4.667915 4.053177 6.996315
v 4.633745 0.181634 7.066931
v 4.629819 0.193312 7.050678
v 4.633745 0.181634 4.584460
v 4.629819 0.193312 4.600713
v 4.631637 4.159117 7.064823
v 4.628631 4.143503 7.052375
v 4.631637 4.159117 4.586568
v 4.628631 4.143503 4.599016
vt 0.707321 0.977034
vt 0.707321 0.753347
vt 0.925488 0.753347
vt 0.925488 0.977034
vt 0.247807 0.247807
vt 0.009766 0.247807
vt 0.009766 0.009766
vt 0.247807 0.009766
vt 0.307256 0.009766
vt 0.497618 0.010193
vt 0.497085 0.248139
vt 0.306722 0.247712
vt 0.266893 0.013227
vt 0.266375 0.244069
vt 0.263581 0.014379
vt 0.263068 0.242902
vt 0.236109 0.986880
vt 0.231902 0.985365
vt 0.231892 0.757094
vt 0.236099 0.755579
vt 0.274179 0.752221
vt 0.464595 0.752213
vt 0.464605 0.990226
vt 0.274189 0.990234
vt 0.263068 0.730390
vt 0.263232 0.503031
vt 0.303669 0.508106
vt 0.303512 0.725374
vt 0.925551 0.237439
vt 0.925720 0.009766
vt 0.967419 0.014999
vt 0.967257 0.232268
vt 0.556289 0.495416
vt 0.556263 0.257571
vt 0.746544 0.257549
vt 0.746571 0.495394
vt 0.518063 0.257575
vt 0.515854 0.493236
vt 0.513648 0.258266
vt 0.512473 0.492310
vt 0.521217 0.505522
vt 0.711499 0.505566
vt 0.711445 0.743411
vt 0.521163 0.743367
vt 0.480781 0.507698
vt 0.482963 0.743359
vt 0.478548 0.742667
vt 0.477401 0.508623
vt 0.789157 0.484517
vt 0.790576 0.251199
vt 0.831005 0.256400
vt 0.830855 0.479210
vt 0.817970 0.243083
vt 0.816436 0.009766
vt 0.858136 0.015052
vt 0.858396 0.237862
vn 0.000000 0.000000 1.000000
vn 0.000000 0.000000 1.000000
vn 0.000000 0.000000 1.000000
vn 0.000000 0.000000 1.000000
vn 0.000000 1.000000 0.000000
vn 0.000000 1.000000 0.000000
vn 0.000000 1.000000 0.000000
vn 0.000000 1.000000 0.000000
vn 0.000000 0.000000 -1.000000
vn 0.000000 0.000000 -1.000000
vn 0.000000 0.000000 -1.000000
vn 0.000000 0.000000 -1.000000
vn -0.999937 -0.011209 0.000000
vn -0.999941 0.010870 0.000000
vn -0.999941 0.010870 0.000000
vn -0.999937 -0.011209 0.000000
vn -0.981170 -0.101245 0.164481
vn -0.981236 -0.118730 0.151916
vn -0.981236 -0.118730 -0.151916
vn -0.981170 -0.101245 -0.164481
vn -0.986588 0.073618 0.145688
vn -0.987061 0.078323 0.139912
vn -0.987061 0.078323 -0.139912
vn -0.986588 0.073618 -0.145688
vn 0.000000 -1.000000 0.000000
vn 0.000000 -1.000000 0.000000
vn 0.000000 -1.000000 0.000000
vn 0.000000 -1.000000 0.000000
vn 0.000000 -1.000000 0.000000
vn 0.000000 -1.000000 0.000000
vn -0.707104 0.000000 0.707109
vn -0.707104 0.000000 0.707109
vn -0.707104 0.000000 0.707109
vn -0.707104 0.000000 0.707110
vn -0.695138 0.718876 0.000000
vn -0.695138 0.718876 0.000000
vn -0.695138 0.718876 0.000000
vn -0.695138 0.718876 0.000000
vn -0.707105 0.000000 -0.707109
vn -0.707105 0.000000 -0.707109
vn -0.707105 0.000000 -0.707109
vn -0.707105 0.000000 -0.707109
vn -0.818945 0.000000 0.573872
vn -0.818945 0.000000 0.573872
vn -0.818945 0.000000 0.573872
vn -0.818945 0.000000 0.573872
vn -0.917026 0.398827 0.000000
vn -0.917026 0.398827 0.000000
vn -0.818943 0.000000 -0.573875
vn -0.818943 0.000000 -0.573875
vn -0.818943 0.000000 -0.573875
vn -0.818943 0.000000 -0.573875
vn -0.917025 -0.398829 0.000000
vn -0.917025 -0.398829 0.000000
vn 1.000000 0.000000 0.000000
vn 1.000000 0.000000 0.000000
vn 1.000000 0.000000 0.000000
vn 1.000000 0.000000 0.000000
s off
g pCube42
usemtl initialShadingGroup
f 26/89/59 25/90/60 21/91/61 22/92/62
f 26/65/63 22/66/64 23/67/65 27/68/66
f 27/97/67 23/98/68 24/99/69 28/100/70
s 1
f 30/57/71 29/58/72 31/59/73 32/60/74
s 2
f 33/73/75 34/74/76 36/75/77 35/76/78
f 34/95/76 33/93/75 37/94/79 38/96/80
f 35/102/78 36/103/77 40/104/81 39/101/82
f 38/71/80 37/69/79 39/70/82 40/72/81
s off
f 35/76/83 28/77/84 24/78/85 21/79/86 25/80/87 33/73/88
f 33/93/89 25/90/90 26/89/91 37/94/92
f 37/69/93 26/65/94 27/68/95 39/70/96
f 39/101/97 27/97/98 28/100/99 35/102/100
f 40/105/101 36/106/102 29/107/103 30/108/104
s 1
f 36/81/105 34/82/106 31/83/73 29/84/72
s off
f 34/109/107 38/110/108 32/111/109 31/112/110
s 1
f 38/85/111 40/86/112 30/87/71 32/88/74
s off
f 23/61/113 22/62/114 21/63/115 24/64/116
